# xmcd
#
# Track frame offsets: 
#        182
#        42900
#        70050
#        89525
#        112900
#        134125
#        158475
#        177950
#
# Disc length: 2821 seconds
#
# Revision: 0
# Processed by: cddbd v1.5.2PL0 Copyright (c) Steve Scherf et al.
# Submitted via: ExactAudioCopy v0.95b4
#
DISCID=660b0308
DTITLE=rufus thomas - timeless funk
DYEAR=1993
DGENRE=Funk
TTITLE0=if there were no music
TTITLE1=walking the dog
TTITLE2=jump back baby
TTITLE3=funky robot
TTITLE4=funky chicken
TTITLE5=push and pull
TTITLE6=breakdown
TTITLE7=get up offa that funk
EXTD=
EXTT0=
EXTT1=
EXTT2=
EXTT3=
EXTT4=
EXTT5=
EXTT6=
EXTT7=
PLAYORDER=
